<svg xmlns="http://www.w3.org/2000/svg" width="18.5" height="18.5" viewBox="0 0 18.5 18.5">
  <g id="Group_27943" data-name="Group 27943" transform="translate(0.25 0.25)">
    <path id="Path_95" data-name="Path 95" d="M876.723,404.025H876.6v-.349a.6.6,0,0,0-1.2,0v.349h-2.6v-.3a.6.6,0,0,0-1.2,0v.3H869v-.349a.6.6,0,0,0-1.2,0v.362a4.467,4.467,0,0,0-4.4,4.268v8.54a4.5,4.5,0,0,0,4.677,4.281h8.647a4.5,4.5,0,0,0,4.676-4.281v-8.54A4.5,4.5,0,0,0,876.723,404.025Zm3.475,12.821a3.342,3.342,0,0,1-3.475,3.182h-8.647a3.342,3.342,0,0,1-3.476-3.182v-8.54a3.313,3.313,0,0,1,3.2-3.168v.278a.6.6,0,0,0,1.2,0v-.291h2.6v.341a.6.6,0,0,0,1.2,0v-.341h2.6v.291a.6.6,0,0,0,1.2,0v-.291h.121a3.342,3.342,0,0,1,3.475,3.182Z" transform="translate(-863.399 -403.127)" fill="#ccb48c" stroke="#ccb48c" stroke-width="0.5"/>
    <path id="Path_96" data-name="Path 96" d="M883.6,419.251h-7.958a.637.637,0,1,0,0,1.273H883.6a.637.637,0,1,0,0-1.273Z" transform="translate(-870.623 -413.404)" fill="#ccb48c" stroke="#ccb48c" stroke-width="0.5"/>
    <path id="Path_97" data-name="Path 97" d="M883.6,428.751h-7.958a.637.637,0,1,0,0,1.273H883.6a.637.637,0,1,0,0-1.273Z" transform="translate(-870.623 -419.458)" fill="#ccb48c" stroke="#ccb48c" stroke-width="0.5"/>
    <path id="Path_98" data-name="Path 98" d="M883.6,438.251h-7.958a.637.637,0,1,0,0,1.273H883.6a.637.637,0,1,0,0-1.273Z" transform="translate(-870.623 -425.513)" fill="#ccb48c" stroke="#ccb48c" stroke-width="0.5"/>
  </g>
</svg>
