<svg id="Group_28068" data-name="Group 28068" xmlns="http://www.w3.org/2000/svg" width="24.68" height="19.744" viewBox="0 0 24.68 19.744">
  <g id="photo-camera" transform="translate(0 0)">
    <g id="Group_19" data-name="Group 19">
      <g id="Group_18" data-name="Group 18">
        <path id="Path_7659" data-name="Path 7659" d="M21.729,50.538H19.154l-1.422-2.146A2.955,2.955,0,0,0,15.291,47.1h-5.9a2.955,2.955,0,0,0-2.441,1.288L5.526,50.538H2.951A2.942,2.942,0,0,0,0,53.489V63.9a2.942,2.942,0,0,0,2.951,2.951H21.729A2.942,2.942,0,0,0,24.68,63.9V53.489A2.942,2.942,0,0,0,21.729,50.538Zm-9.389,13.9a6.64,6.64,0,1,1,6.653-6.626A6.652,6.652,0,0,1,12.34,64.434ZM21.354,54.7h-1.18a.873.873,0,0,1,0-1.744h1.073a.871.871,0,0,1,.912.832A.849.849,0,0,1,21.354,54.7Z" transform="translate(0 -47.104)" fill="#a48251"/>
      </g>
    </g>
    <g id="Group_21" data-name="Group 21" transform="translate(8.638 7.002)">
      <g id="Group_20" data-name="Group 20" transform="translate(0 0)">
        <path id="Path_7660" data-name="Path 7660" d="M168.566,180.736a3.689,3.689,0,1,0,3.7,3.675A3.709,3.709,0,0,0,168.566,180.736Z" transform="translate(-164.864 -180.736)" fill="#a48251"/>
      </g>
    </g>
  </g>
  <g id="add-24px" transform="translate(7.143 5.694)">
    <path id="Path_13222" data-name="Path 13222" d="M0,0H10.406V10.406H0Z" fill="none"/>
    <path id="Path_13223" data-name="Path 13223" d="M10.637,8.469H8.469v2.168a.434.434,0,1,1-.867,0V8.469H5.434a.434.434,0,0,1,0-.867H7.6V5.434a.434.434,0,0,1,.867,0V7.6h2.168a.434.434,0,1,1,0,.867Z" transform="translate(-2.832 -2.832)" fill="#fff"/>
  </g>
</svg>
