<svg xmlns="http://www.w3.org/2000/svg" width="20.722" height="24" viewBox="0 0 20.722 24">
  <g id="woman-with-long-hair" transform="translate(-25.686)">
    <g id="Group_27936" data-name="Group 27936" transform="translate(25.686)">
      <path id="Path_13211" data-name="Path 13211" d="M36.458,18c-1.483-2.223-.593-8.6-1.927-8.983-1.186-.356-4.863,2.075-6.671,5.307s-4.032,8.064.475,11.118c2.46,1.9-.711,2.787-1.275,1.275-.053,3.075,2.968,3.154,3.41.978.307-1.515-1.534-4.692-2.1-6.226-1.394-3.735,2.727-8.746,2.727-8.746s-3.676,6.049-2.194,8.984c5.07,7.471,1.7,7.293.385,8.184,4.952.237,6.654-4.13,6.938-4.715a6.6,6.6,0,0,0-1.364-6.344c-.385-.341-.741.074-2.083,0s-.615-1.334-.615-1.334-.463-.393-.475-.563.414-.3.414-.3-.415-.223-.444-.415.446-.653.446-.653-.627-.289-.638-.578.684-.766,1.349-2.149c.5-1.045.475-2.787,1.275-3.188.475.816-1.482,7.042,1.72,9.028.593.326,4.388,3.291,1.274,7.115C40.52,23.4,37.39,19.371,36.458,18Z" transform="translate(-25.686 -8.412)" fill="#8b8989"/>
      <path id="Path_13212" data-name="Path 13212" d="M173.992,2.1c1.483,1.75-.03,8.362,3.469,10.555,4.743,3.38,1.4,7.937.712,9.162,1.186-3.439,1.1-5.218.533-6.611s-4.121-5.1-4.684-6.968-.741-7.026-3.47-6.087c2.522,3.182.995,6.1,4.434,10.474s2.742,10.525-.133,11.947c4.491-5.944.533-10.584-.623-12.423-.612-.973-1.9-1.778-2.016-4.031S170.529,1.967,169.9,2.19c1.631,3.232-.06,7.768,3.587,12.126,2.49,2.728,3.588,8.657-.621,11.592,4.417-.178,6.967-4.891,8.034-7.946,1.423-4.24-2.639-7.886-3.409-9.369S176.3,2.131,173.992,2.1Z" transform="translate(-160.699 -1.908)" fill="#8b8989"/>
      <path id="Path_13213" data-name="Path 13213" d="M262.567,17.05a15.352,15.352,0,0,0-4.134-4.158c2.022,3.491,1.888,5.047,2.622,6.115s2.024,1.312,3.247,5.128C264.346,23.593,263.99,19.319,262.567,17.05Z" transform="translate(-243.583 -12.069)" fill="#8b8989"/>
      <path id="Path_13214" data-name="Path 13214" d="M203.674,2.713a20.136,20.136,0,0,0,.967,3.958c-.244-3.513.09-3.314-.2-4.626A2.185,2.185,0,0,0,201.951,0C203.641,1.423,203.574,2.158,203.674,2.713Z" transform="translate(-190.705)" fill="#8b8989"/>
    </g>
  </g>
</svg>
