<svg xmlns="http://www.w3.org/2000/svg" width="54.02" height="45" viewBox="0 0 54.02 45">
  <g id="Group_100946" data-name="Group 100946" transform="translate(0 -42.747)">
    <g id="Group_100945" data-name="Group 100945" transform="translate(0 42.747)">
      <path id="Path_58038" data-name="Path 58038" d="M283.68,283.559a.791.791,0,0,0-.791.791v7.931a2.479,2.479,0,0,1-2.476,2.476h-2.235L276.9,293.48l2.671-2.671a1.213,1.213,0,0,0-.435-2l-3.478-1.294a3.8,3.8,0,0,0-1.371-7.339H261.432a3.8,3.8,0,0,0,0,7.6h2.982l4.275,11.486a1.221,1.221,0,0,0,2,.435l2.671-2.671,2.719,2.719a1.325,1.325,0,0,0,1.865,0l1.682-1.682a1.32,1.32,0,0,0,.12-1.725h.672a4.063,4.063,0,0,0,4.059-4.058v-7.931A.791.791,0,0,0,283.68,283.559Zm-22.248,2.635a2.215,2.215,0,0,1,0-4.431h12.857a2.215,2.215,0,0,1,0,4.431h-2.07a.787.787,0,0,0-.1.007l-6.922-2.576a1.319,1.319,0,0,0-1.7,1.7l.325.873Zm15.574,12.246-3.092-3.092a.791.791,0,0,0-1.119,0l-2.824,2.824-4.787-12.862,12.862,4.787-2.824,2.824a.791.791,0,0,0,0,1.119l3.092,3.092Z" transform="translate(-230.452 -255.13)" fill="#ccb48c"/>
      <path id="Path_58039" data-name="Path 58039" d="M33.37,211.712H4.058a2.479,2.479,0,0,1-2.476-2.476v-21.1a.791.791,0,0,0-1.583,0v21.1a4.063,4.063,0,0,0,4.058,4.058H33.37a.791.791,0,0,0,0-1.583Z" transform="translate(0 -172.085)" fill="#ccb48c"/>
      <path id="Path_58040" data-name="Path 58040" d="M38.165,189.628a1.32,1.32,0,0,0,1.248,1.746H57.842a1.32,1.32,0,0,0,1.248-1.745,9.125,9.125,0,0,0-5.844-5.762,5.44,5.44,0,0,0,.756-1.73,3.06,3.06,0,0,0,1.534-2.461,1.994,1.994,0,0,0-.571-1.646,2.074,2.074,0,0,0-.817-.481,5.5,5.5,0,0,0-10.975-.02,2.094,2.094,0,0,0-.883.5,1.994,1.994,0,0,0-.571,1.646,3.029,3.029,0,0,0,1.607,2.493,5.439,5.439,0,0,0,.736,1.681A9.116,9.116,0,0,0,38.165,189.628Zm5.819-8.906h0a1.408,1.408,0,0,1-.686-1.164c-.063-.832.814-.332,1.2-.764a1.13,1.13,0,0,0,.252-.949,3.913,3.913,0,1,1,7.827,0,1.149,1.149,0,0,0,.233.929.791.791,0,0,0,.558.23c.409.072.6.028.593.554-.045.607-.487,1.152-.685,1.163a.791.791,0,0,0-.739.679,3.913,3.913,0,0,1-7.747,0,.791.791,0,0,0-.783-.68Zm1.29,4.445a5.459,5.459,0,0,0,6.756.011,7.535,7.535,0,0,1,5.435,4.614H39.79a7.527,7.527,0,0,1,5.486-4.624Z" transform="translate(-34.076 -158.675)" fill="#ccb48c"/>
      <path id="Path_58041" data-name="Path 58041" d="M124.3,261.333a2.451,2.451,0,0,0,2.807,0,.337.337,0,0,0-.2-.609h-2.4A.337.337,0,0,0,124.3,261.333Z" transform="translate(-111.06 -237.726)" fill="#ccb48c"/>
      <path id="Path_58042" data-name="Path 58042" d="M112.824,231.639a.776.776,0,1,0-.777-.776A.776.776,0,0,0,112.824,231.639Z" transform="translate(-100.225 -210.32)" fill="#ccb48c"/>
      <path id="Path_58043" data-name="Path 58043" d="M151.575,231.639a.776.776,0,1,0-.776-.776A.776.776,0,0,0,151.575,231.639Z" transform="translate(-134.889 -210.32)" fill="#ccb48c"/>
      <path id="Path_58044" data-name="Path 58044" d="M49.962,42.747H4.058A4.063,4.063,0,0,0,0,46.805v7.979a.791.791,0,1,0,1.583,0V53.346H52.437V67.86a.791.791,0,0,0,1.583,0V46.805A4.063,4.063,0,0,0,49.962,42.747ZM1.583,46.805A2.479,2.479,0,0,1,4.058,44.33h45.9a2.479,2.479,0,0,1,2.476,2.476v4.958H1.583Z" transform="translate(0 -42.747)" fill="#ccb48c"/>
      <circle id="Ellipse_1388" data-name="Ellipse 1388" cx="1.466" cy="1.466" r="1.466" transform="translate(4.797 6.095) rotate(-67.486)" fill="#ccb48c"/>
      <circle id="Ellipse_1389" data-name="Ellipse 1389" cx="1.466" cy="1.466" r="1.466" transform="translate(9.307 6.094) rotate(-67.486)" fill="#ccb48c"/>
      <circle id="Ellipse_1390" data-name="Ellipse 1390" cx="1.466" cy="1.466" r="1.466" transform="translate(13.818 6.094) rotate(-67.486)" fill="#ccb48c"/>
      <path id="Path_58045" data-name="Path 58045" d="M261.432,193.729h.912a.791.791,0,1,0,0-1.583h-.912a3.8,3.8,0,0,0,0,7.6h12.857a3.8,3.8,0,0,0,0-7.6h-7.82a.791.791,0,1,0,0,1.583h7.82a2.215,2.215,0,0,1,0,4.431H261.432a2.215,2.215,0,0,1,0-4.431Z" transform="translate(-230.452 -176.383)" fill="#ccb48c"/>
    </g>
  </g>
</svg>
