<svg xmlns="http://www.w3.org/2000/svg" width="18.5" height="18.5" viewBox="0 0 18.5 18.5">
  <g id="Group_28" data-name="Group 28" transform="translate(0.25 0.25)">
    <path id="Path_64" data-name="Path 64" d="M758.4,736.138a9,9,0,1,0,9,9A9.01,9.01,0,0,0,758.4,736.138Zm0,16.744a7.744,7.744,0,1,1,7.745-7.744A7.753,7.753,0,0,1,758.4,752.882Z" transform="translate(-749.401 -736.138)" fill="#ccb48c" stroke="#ccb48c" stroke-width="0.5"/>
    <path id="Path_65" data-name="Path 65" d="M766.136,744.336a.637.637,0,0,0-.637.636v4.8l-2.749,3.607a.636.636,0,1,0,1.012.771l2.88-3.778a.637.637,0,0,0,.13-.386v-5.011A.637.637,0,0,0,766.136,744.336Z" transform="translate(-757.111 -740.964)" fill="#ccb48c" stroke="#ccb48c" stroke-width="0.5"/>
  </g>
</svg>
