<svg xmlns="http://www.w3.org/2000/svg" width="31.659" height="31.658" viewBox="0 0 31.659 31.658">
  <g id="edit" transform="translate(0 -0.501)">
    <path id="Path_13218" data-name="Path 13218" d="M25.064,96.369a1.319,1.319,0,0,0-1.319,1.319v10.553a1.32,1.32,0,0,1-1.319,1.319H3.957a1.32,1.32,0,0,1-1.319-1.319V89.774a1.32,1.32,0,0,1,1.319-1.319H14.511a1.319,1.319,0,0,0,0-2.638H3.957A3.962,3.962,0,0,0,0,89.774v18.468A3.962,3.962,0,0,0,3.957,112.2H22.426a3.962,3.962,0,0,0,3.957-3.957V97.688a1.318,1.318,0,0,0-1.319-1.319Zm0,0" transform="translate(0 -80.04)" fill="#fff"/>
    <path id="Path_13219" data-name="Path 13219" d="M182.935,78.7a.668.668,0,0,0-.181.336l-.933,4.665a.659.659,0,0,0,.648.789.628.628,0,0,0,.129-.013l4.663-.933a.657.657,0,0,0,.338-.181l10.437-10.437-4.663-4.663Zm0,0" transform="translate(-170.566 -63.571)" fill="#fff"/>
    <path id="Path_13220" data-name="Path 13220" d="M397.934,1.466a3.3,3.3,0,0,0-4.663,0l-1.826,1.826,4.663,4.663,1.826-1.826a3.3,3.3,0,0,0,0-4.663Zm0,0" transform="translate(-367.241 0)" fill="#fff"/>
  </g>
</svg>
