<svg xmlns="http://www.w3.org/2000/svg" width="23" height="23" viewBox="0 0 23 23">
  <path id="Activity" d="M6.211,23a6.289,6.289,0,0,1-4.573-1.643A6.3,6.3,0,0,1,0,16.789V8.28A6.329,6.329,0,0,1,1.638,3.7a6.273,6.273,0,0,1,4.573-1.65h9.256a5.587,5.587,0,0,0-.068.862,4.68,4.68,0,0,0,4.669,4.679,5.369,5.369,0,0,0,.851-.079v9.279a6.29,6.29,0,0,1-1.638,4.569A6.286,6.286,0,0,1,14.709,23ZM8.269,10.3a.9.9,0,0,0-.575.344l-3.4,4.429-.07.1a.859.859,0,0,0,.241,1.092.957.957,0,0,0,.529.173h.03A.822.822,0,0,0,5.67,16.1l2.887-3.716,3.277,2.462.1.067a.861.861,0,0,0,1.093-.241l3.323-4.288-.046.023a.863.863,0,0,0,.091-.863.847.847,0,0,0-.7-.505c-.032,0-.064-.005-.1-.005a.883.883,0,0,0-.71.361L12.111,13,8.924,10.489A.9.9,0,0,0,8.37,10.3C8.337,10.3,8.3,10.3,8.269,10.3Zm9.189-7.533a2.771,2.771,0,1,1,2.772,2.772A2.773,2.773,0,0,1,17.458,2.772Z" fill="#8b8989"/>
</svg>
