<svg id="Icons_Line_Home_Copy_4" data-name="Icons / Line / Home Copy 4" xmlns="http://www.w3.org/2000/svg" width="17.191" height="22.857" viewBox="0 0 17.191 22.857">
  <g id="bell" transform="translate(0)">
    <path id="Shape" d="M8.595,22.857a3.736,3.736,0,0,1-3.513-2.54H3.1A3.143,3.143,0,0,1,0,17.143a3.228,3.228,0,0,1,.267-1.29l.878-2.02V10.159A7.624,7.624,0,0,1,6.112,2.974V2.54a2.484,2.484,0,1,1,4.967,0v.434a7.625,7.625,0,0,1,4.966,7.186v3.674l.878,2.02a3.207,3.207,0,0,1-1.576,4.19,3.035,3.035,0,0,1-1.261.274H12.108A3.739,3.739,0,0,1,8.595,22.857Zm-2.152-2.54a2.458,2.458,0,0,0,4.3,0ZM8.595,3.81a6.287,6.287,0,0,0-6.207,6.349v3.809l-.053.258L1.4,16.37a1.949,1.949,0,0,0-.16.773,1.886,1.886,0,0,0,1.863,1.9H14.086a1.841,1.841,0,0,0,.756-.165,1.924,1.924,0,0,0,.946-2.514l-.932-2.144-.053-.258V10.159A6.287,6.287,0,0,0,8.595,3.81Zm0-1.27a7.284,7.284,0,0,1,1.241.106V2.54a1.242,1.242,0,1,0-2.483,0v.106A7.306,7.306,0,0,1,8.595,2.54Z" transform="translate(0)" fill="#8b8989"/>
  </g>
</svg>
