<svg id="Group_27945" data-name="Group 27945" xmlns="http://www.w3.org/2000/svg" width="21.198" height="22.279" viewBox="0 0 21.198 22.279">
  <path id="Path_5" data-name="Path 5" d="M282.553,558.287a6.478,6.478,0,0,1-4.58-11.059l10.466-9.718a5.185,5.185,0,0,1,7.317.017,5.192,5.192,0,0,1,0,7.334l-9.194,8.445a3.894,3.894,0,0,1-5.487-5.527l.036-.034,5.118-4.41a.666.666,0,0,1,.869,1.008l-5.1,4.393a2.564,2.564,0,0,0,3.642,3.609l9.193-8.445a3.856,3.856,0,0,0-5.473-5.433L278.9,548.187a5.147,5.147,0,0,0,7.3,7.262l9.387-8.787a.666.666,0,0,1,.91.972l-9.372,8.772A6.421,6.421,0,0,1,282.553,558.287Z" transform="translate(-276.075 -536.008)" fill="#b83561"/>
</svg>
