<svg xmlns="http://www.w3.org/2000/svg" width="16.713" height="16.713" viewBox="0 0 16.713 16.713">
  <g id="settings-sliders" transform="translate(0 0)">
    <path id="Path_96421" data-name="Path 96421" d="M.7,3.308H2.6a2.6,2.6,0,0,0,5.01,0h8.4a.7.7,0,1,0,0-1.393h-8.4a2.6,2.6,0,0,0-5.01,0H.7a.7.7,0,0,0,0,1.393Zm4.41-1.915A1.219,1.219,0,1,1,3.888,2.611,1.219,1.219,0,0,1,5.106,1.393Z" fill="#b83561"/>
    <path id="Path_96422" data-name="Path 96422" d="M16.016,10.165H14.111a2.6,2.6,0,0,0-5.01,0H.7a.7.7,0,1,0,0,1.393H9.1a2.6,2.6,0,0,0,5.01,0h1.905a.7.7,0,1,0,0-1.393Zm-4.41,1.915a1.219,1.219,0,1,1,1.219-1.219,1.219,1.219,0,0,1-1.219,1.219Z" transform="translate(0 -2.505)" fill="#b83561"/>
    <path id="Path_96423" data-name="Path 96423" d="M16.016,18.415h-8.4a2.6,2.6,0,0,0-5.01,0H.7a.7.7,0,1,0,0,1.393H2.6a2.6,2.6,0,0,0,5.01,0h8.4a.7.7,0,1,0,0-1.393ZM5.106,20.33a1.219,1.219,0,1,1,1.219-1.219A1.219,1.219,0,0,1,5.106,20.33Z" transform="translate(0 -5.01)" fill="#b83561"/>
  </g>
</svg>
